<svg width="54" height="54" viewBox="0 0 54 54" fill="none" xmlns="http://www.w3.org/2000/svg">
<path fill-rule="evenodd" clip-rule="evenodd" d="M5.27344 16.4529H48.7268V45.9841H5.27344V16.4529Z" fill="#E2C4FF"/>
<path d="M50.8359 2.74219H3.16406C1.4194 2.74219 0 4.16158 0 5.90624V48.0937C0 49.8383 1.4194 51.2577 3.16406 51.2577H50.8359C52.5806 51.2577 54 49.8383 54 48.0937V5.90624C54 4.16158 52.5806 2.74219 50.8359 2.74219ZM3.16406 4.85156H50.8359C51.4175 4.85156 51.8906 5.32469 51.8906 5.90624V6.96093H17.9297C17.3471 6.96093 16.875 7.43311 16.875 8.01561C16.875 9.76028 15.4556 11.1797 13.7109 11.1797H2.10937V5.90624C2.10937 5.32469 2.5825 4.85156 3.16406 4.85156ZM50.8359 49.1483H3.16406C2.5825 49.1483 2.10937 48.6752 2.10937 48.0937V13.289H13.7109C16.2576 13.289 18.3883 11.4743 18.8784 9.0703H51.8907V48.0937C51.8906 48.6752 51.4176 49.1483 50.8359 49.1483Z" fill="#020288"/>
<path d="M13.7112 9.07031C14.2937 9.07031 14.7659 8.59813 14.7659 8.01562C14.7142 6.61806 12.7074 6.61827 12.6561 8.01562C12.6562 8.59813 13.1287 9.07031 13.7112 9.07031Z" fill="#020288"/>
<path d="M9.49243 9.07031C10.0749 9.07031 10.5471 8.59813 10.5471 8.01562C10.4954 6.61806 8.48857 6.61827 8.43732 8.01562C8.43732 8.59813 8.90992 9.07031 9.49243 9.07031Z" fill="#020288"/>
<path d="M5.27355 9.07031C5.85606 9.07031 6.32824 8.59813 6.32824 8.01562C6.27656 6.61806 4.2697 6.61827 4.21844 8.01562C4.21844 8.59813 4.69105 9.07031 5.27355 9.07031Z" fill="#020288"/>
<path d="M21.261 23.3052C21.2902 20.0506 17.2484 18.3798 14.9626 20.695C14.9626 20.6949 9.74214 25.9154 9.74214 25.9154C8.30291 27.3546 8.30291 29.6966 9.74214 31.1359C11.1815 32.5751 13.5233 32.575 14.9626 31.1359L20.183 25.9154C20.8783 25.2203 21.261 24.2933 21.261 23.3052ZM13.4711 29.6443C11.9327 31.0702 9.80827 28.9444 11.2338 27.4069L13.0983 25.5425L15.3356 27.7798L13.4711 29.6443ZM18.6915 24.4238L16.827 26.2882L14.5897 24.0509L16.4542 22.1865C16.7626 21.8781 17.1677 21.7238 17.5728 21.7238C18.9621 21.7112 19.6833 23.4376 18.6915 24.4238Z" fill="#020288"/>
<path d="M26.0665 26.4726C23.3074 26.4211 20.7612 28.5843 20.3471 31.3003C17.6103 31.7645 15.5196 34.1524 15.5196 37.0194C15.7119 44.125 25.6928 44.9083 27.0395 37.9928C29.7557 37.5783 31.9186 35.0327 31.8672 32.2733C31.9318 29.1554 29.1844 26.408 26.0665 26.4726ZM21.3205 40.7108C19.6513 40.7108 18.2374 39.5973 17.7825 38.0741H21.3205C21.903 38.0741 22.3752 37.6019 22.3752 37.0194C22.3752 36.4369 21.903 35.9647 21.3205 35.9647H17.7825C19.0567 31.9456 24.9215 32.7549 25.0119 37.0195C25.0119 39.0549 23.3559 40.7108 21.3205 40.7108ZM28.6767 34.8836C28.2071 35.3532 27.6305 35.6816 27.0019 35.8453C26.8428 35.0748 26.5305 34.3596 26.0983 33.7332L26.8123 33.0192C27.2242 32.6073 27.2242 31.9395 26.8123 31.5276C26.4005 31.1156 25.7327 31.1157 25.3207 31.5276L24.6067 32.2416C23.9803 31.8094 23.2651 31.4971 22.4946 31.338C23.1927 28.6025 26.6901 27.6479 28.6768 29.6632C30.1087 31.037 30.1088 33.5096 28.6767 34.8836Z" fill="#020288"/>
<path d="M44.2813 19.6172H35.5801C34.9976 19.6172 34.5255 20.0894 34.5255 20.6719C34.5255 21.2544 34.9976 21.7266 35.5801 21.7266H44.2813C45.6763 21.6759 45.6806 19.6695 44.2813 19.6172Z" fill="#020288"/>
<path d="M44.2813 23.8359H35.5801C34.9976 23.8359 34.5255 24.3081 34.5255 24.8906C34.5255 25.4731 34.9976 25.9453 35.5801 25.9453H44.2813C45.6763 25.8947 45.6806 23.8883 44.2813 23.8359Z" fill="#020288"/>
<path d="M35.5801 30.1641H39.9307C41.327 30.1129 41.3289 28.1066 39.9307 28.0547H35.5801C34.9976 28.0547 34.5255 28.5269 34.5255 29.1094C34.5255 29.6919 34.9976 30.1641 35.5801 30.1641Z" fill="#020288"/>
<path d="M44.2813 32.2734H35.5801C34.9976 32.2734 34.5255 32.7456 34.5255 33.3281C34.5255 33.9106 34.9976 34.3828 35.5801 34.3828H44.2813C45.6763 34.3322 45.6806 32.3258 44.2813 32.2734Z" fill="#020288"/>
<path d="M44.2813 36.4919H35.5801C34.9976 36.4919 34.5255 36.9641 34.5255 37.5466C34.5255 38.1291 34.9976 38.6013 35.5801 38.6013H44.2813C45.6763 38.5508 45.6806 36.5443 44.2813 36.4919Z" fill="#020288"/>
<path d="M39.9307 40.7107H35.5801C34.1838 40.7618 34.1819 42.7682 35.5801 42.8201H39.9307C40.5132 42.8201 40.9854 42.3479 40.9854 41.7654C40.9854 41.1829 40.5131 40.7107 39.9307 40.7107Z" fill="#020288"/>
</svg>
