<svg width="54" height="54" viewBox="0 0 54 54" fill="none" xmlns="http://www.w3.org/2000/svg">
<g clip-path="url(#clip0_42_148)">
<path fill-rule="evenodd" clip-rule="evenodd" d="M26.4727 35.4373C33.4436 35.4373 39.129 29.7519 39.129 22.7811C38.4816 6.01598 14.4612 6.02052 13.8163 22.7813C13.8165 29.7519 19.5018 35.4373 26.4727 35.4373Z" fill="#FFF69B"/>
<path fill-rule="evenodd" clip-rule="evenodd" d="M44.4023 10.125V16.4531H50.7304L49.6757 13.2891L50.7304 10.125H44.4023Z" fill="#FFF69B"/>
<path d="M44.4022 0H8.54304C5.63528 0 3.26962 2.36565 3.26962 5.27342V48.7266C3.26962 51.6343 5.63528 54 8.54304 54H44.4022C44.9846 54 45.4568 53.5278 45.4568 52.9453V1.05468C45.4568 0.472182 44.9847 0 44.4022 0V0ZM43.3475 43.4532H9.59772V2.10937H43.3475V43.4532ZM5.37899 5.27342C5.37899 3.89843 6.2607 2.72541 7.48836 2.29014V43.5592C6.70947 43.7179 5.99239 44.0488 5.37899 44.5103V5.27342ZM8.54304 51.8906C4.35342 51.7324 4.35036 45.7218 8.54304 45.5625H43.3475V47.6719H8.54304C7.96054 47.6719 7.48836 48.1441 7.48836 48.7266C7.48836 49.3091 7.96054 49.7813 8.54304 49.7813H43.3475V51.8906H8.54304Z" fill="#020288"/>
<path d="M20.1446 26.4727H22.7813V29.1094C22.7813 29.6919 23.2535 30.1641 23.836 30.1641H29.1094C29.6918 30.1641 30.1641 29.6919 30.1641 29.1094V26.4727H32.8008C33.3832 26.4727 33.8555 26.0005 33.8555 25.418V20.1445C33.8555 19.562 33.3832 19.0898 32.8008 19.0898H30.1641V16.4531C30.1641 15.8706 29.6918 15.3984 29.1094 15.3984H23.836C23.2535 15.3984 22.7813 15.8706 22.7813 16.4531V19.0898H20.1446C19.5621 19.0898 19.0899 19.562 19.0899 20.1445V25.418C19.0899 26.0005 19.5621 26.4727 20.1446 26.4727ZM21.1992 21.1992H23.836C24.4185 21.1992 24.8907 20.727 24.8907 20.1445V17.5078H28.0547V20.1445C28.0547 20.727 28.527 21.1992 29.1094 21.1992H31.7461V24.3633H29.1094C28.527 24.3633 28.0547 24.8355 28.0547 25.418V28.0547H24.8907V25.418C24.8907 24.8355 24.4185 24.3633 23.836 24.3633H21.1992V21.1992Z" fill="#020288"/>
</g>
<defs>
<clipPath id="clip0_42_148">
<rect width="54" height="54" fill="white"/>
</clipPath>
</defs>
</svg>
