<svg width="54" height="54" viewBox="0 0 54 54" fill="none" xmlns="http://www.w3.org/2000/svg">
<g clip-path="url(#clip0_42_128)">
<path fill-rule="evenodd" clip-rule="evenodd" d="M37.8502 0.000870477C46.7675 0.000870477 53.9965 7.2298 53.9965 16.1471C54.1252 28.6511 39.9271 36.5172 29.4209 29.9204C27.6922 30.3843 25.9635 30.8481 24.2345 31.3113C23.3118 31.5718 22.4281 30.7275 22.6809 29.7785C23.1459 28.0431 23.611 26.3093 24.0763 24.5755C17.4796 14.0666 25.3487 -0.127943 37.8502 0.000870477Z" fill="#B2F0FB"/>
<path d="M37.1682 41.9618C36.8229 41.6827 32.7431 38.387 31.7409 37.6208C31.118 37.1444 30.1341 36.5404 28.7831 36.7968C27.43 37.0536 26.0487 38.1264 24.5605 40.0765C21.8829 43.8205 18.3909 40.9098 15.7161 38.2813C13.0875 35.6056 10.1763 32.1151 13.9211 29.437C15.8712 27.9487 16.944 26.5675 17.2007 25.2142C17.4568 23.864 16.8531 22.8795 16.3766 22.2565C15.6104 21.2545 12.3151 17.175 12.0357 16.8292C11.1522 15.6426 9.7213 15.1123 8.10443 15.3741C5.01334 15.8746 1.96276 18.9847 0.686025 22.9372C-1.70182 31.2156 2.44309 38.6004 8.85716 45.1402C15.324 51.4832 22.768 55.7304 31.0604 53.3115C35.013 52.0346 38.1231 48.984 38.6233 45.8929C38.8848 44.2767 38.3546 42.8454 37.1682 41.9618ZM29.1763 38.8698C29.5993 38.7896 29.9472 38.9053 30.4592 39.2969C31.4613 40.0631 35.8155 43.5816 35.8594 43.617C36.9809 44.3679 36.6086 46.0268 35.9474 47.1357L27.2422 40.1721C28.1266 39.254 28.7635 38.9482 29.1763 38.8698ZM8.44161 17.457C9.16859 17.3211 9.94421 17.507 10.3507 18.0993C10.424 18.1931 13.8981 22.4904 14.7006 23.5382C15.5934 24.6236 15.0624 25.5094 13.817 26.7633L6.85164 18.0559C7.39971 17.7403 7.94091 17.538 8.44161 17.457ZM30.4117 51.3036C17.4943 56.3087 -6.50271 31.7008 5.19364 19.3609L12.1987 28.118C7.86094 31.7874 10.7639 36.4224 14.2184 39.7676C17.5636 43.2275 22.2166 46.1449 25.8869 41.7899L34.6447 48.7956C33.6073 49.8158 32.1769 50.7334 30.4117 51.3036Z" fill="#020288"/>
<path d="M29.7738 17.1431C30.733 17.1431 31.6923 16.778 32.4226 16.0477L37.7505 10.7196C39.1993 9.33065 39.1996 6.81104 37.7506 5.42184C36.29 3.96133 33.9137 3.96122 32.453 5.42184L27.125 10.7499C24.7676 13.0964 26.4826 17.1656 29.7738 17.1431ZM33.945 6.9139C34.5828 6.27595 35.6207 6.27595 36.2587 6.9139C36.2587 6.9139 36.2587 6.91401 36.2588 6.91401C36.8891 7.51788 36.8891 8.62392 36.2587 9.22768L34.3407 11.1457L32.027 8.83196L33.945 6.9139ZM28.6169 12.2419L30.535 10.3238L32.8487 12.6376L30.9306 14.5556C29.3399 16.0305 27.1426 13.8317 28.6169 12.2419Z" fill="#020288"/>
<path d="M49.6694 17.2236C49.4642 10.001 39.3443 9.17166 37.952 16.2491C35.1615 16.7151 33.0278 19.1467 33.0278 22.0674C33.2245 29.3022 43.3909 30.0873 44.7451 23.0422C47.5137 22.6274 49.7217 20.0349 49.6694 17.2236ZM38.9266 25.8564C37.2034 25.8564 35.7452 24.6999 35.2873 23.1224H38.9266C39.5092 23.1224 39.9816 22.65 39.9816 22.0674C39.9816 21.4849 39.5092 21.0124 38.9266 21.0124H35.2873C36.5705 16.8618 42.621 17.6743 42.7156 22.0675C42.7156 24.1567 41.0158 25.8564 38.9266 25.8564ZM46.4496 19.9028C45.9621 20.3903 45.3623 20.7295 44.7086 20.8955C44.5471 20.0976 44.224 19.3574 43.7751 18.711L44.5165 17.9697C44.9285 17.5577 44.9285 16.8898 44.5166 16.4777C44.1047 16.0658 43.4369 16.0657 43.0245 16.4776L42.2831 17.219C41.6366 16.7702 40.8964 16.4471 40.0984 16.2856C40.7739 13.4797 44.4301 12.4711 46.4495 14.5446C47.9194 15.9547 47.9196 18.4924 46.4496 19.9028Z" fill="#020288"/>
</g>
<defs>
<clipPath id="clip0_42_128">
<rect width="54" height="54" fill="white"/>
</clipPath>
</defs>
</svg>
