<svg width="54" height="54" viewBox="0 0 54 54" fill="none" xmlns="http://www.w3.org/2000/svg">
<path fill-rule="evenodd" clip-rule="evenodd" d="M19.0897 21.3048C17.9247 21.3048 16.9804 20.3604 16.9804 19.1954V14.9766C16.3305 14.9766 11.9345 14.9766 11.1797 14.9766V52.9453H42.8202V14.9766H37.0194V19.1954C37.0194 20.3604 36.0751 21.3048 34.91 21.3048C33.745 21.3048 32.8007 20.3604 32.8007 19.1954V14.9766H21.1991V19.1954C21.1991 20.3604 20.2546 21.3048 19.0897 21.3048Z" fill="#FFBEBC"/>
<path d="M51.2572 46.5796L50.2023 17.0484C50.1398 15.2953 48.7503 13.922 47.039 13.922H38.0741V11.0742C38.0741 4.96788 33.1063 0 26.9999 0C20.8936 0 15.9257 4.96788 15.9257 11.0742V13.922H6.96067C5.24944 13.922 3.85989 15.2953 3.79725 17.0485C3.7886 17.075 2.74688 46.5904 2.74182 46.6171V50.8359C2.74182 52.5806 4.16122 54 5.90588 54H48.0938C49.8385 54 51.2579 52.5806 51.2579 50.8359C51.2572 50.7983 51.259 46.6141 51.2572 46.5796ZM18.0351 11.0742C18.4851 -0.801139 35.5154 -0.800507 35.9647 11.0743C35.9647 11.0742 35.9647 19.1955 35.9647 19.1955C35.9142 20.5901 33.9063 20.5928 33.8552 19.1955V11.0742C33.5112 1.99336 20.4882 1.99325 20.1444 11.0743C20.1444 11.0742 20.1444 19.1955 20.1444 19.1955C20.1444 19.777 19.6713 20.2502 19.0898 20.2502C18.5082 20.2502 18.0351 19.777 18.0351 19.1955V11.0742ZM31.7459 13.922H22.2538V11.0742C22.2538 8.45721 24.3829 6.32811 26.9999 6.32811C29.6168 6.32811 31.7459 8.45721 31.7459 11.0742V13.922ZM49.1485 50.8359C49.1485 51.4175 48.6754 51.8906 48.0938 51.8906H5.90588C5.32432 51.8906 4.85119 51.4175 4.85119 50.8359V46.6362L5.90524 17.1237C5.92718 16.5112 6.39072 16.0314 6.96056 16.0314H15.9257V19.1956C15.9257 20.9403 17.3451 22.3596 19.0898 22.3596C20.8344 22.3596 22.2538 20.9403 22.2538 19.1956V16.0314H31.7459V19.1956C31.7459 20.9403 33.1653 22.3596 34.9099 22.3596C36.6547 22.3596 38.0741 20.9403 38.0741 19.1956V16.0314H47.039C47.6089 16.0314 48.0725 16.5113 48.0943 17.1238L49.1485 46.6362V50.8359Z" fill="#020288"/>
<path d="M26.9173 25.547C25.5482 24.1193 23.0657 24.1189 21.6968 25.5469L16.4763 30.7674C15.037 32.2066 15.037 34.5486 16.4763 35.9878C17.8454 37.4153 20.3277 37.4158 21.6967 35.9878L26.9171 30.7674C28.3565 29.328 28.3565 26.9862 26.9173 25.547ZM20.2051 34.4962C19.2237 35.4822 17.4962 34.7786 17.5076 33.3775C17.5076 32.9529 17.671 32.5556 17.9678 32.2589L19.8322 30.3945L22.0695 32.6318L20.2051 34.4962ZM25.4256 29.2757L23.5611 31.1402L21.3238 28.9029L23.1883 27.0384C23.485 26.7417 23.8823 26.5782 24.3069 26.5782C25.7081 26.5666 26.4117 28.2947 25.4256 29.2757Z" fill="#020288"/>
<path d="M28.6988 33.0233C27.8385 33.8836 27.2801 34.9721 27.0812 36.1521C24.3444 36.6164 22.2538 39.0042 22.2538 41.8712C22.4461 48.977 32.427 49.7603 33.7737 42.8446C38.3629 42.1115 40.2249 36.2884 36.9023 33.0233C34.6406 30.7618 30.9607 30.7618 28.6988 33.0233ZM28.0546 45.5627C26.3854 45.5627 24.9715 44.4492 24.5166 42.926H28.0546C28.637 42.926 29.1093 42.4537 29.1093 41.8713C29.1093 41.2889 28.637 40.8166 28.0546 40.8166H24.5166C25.7907 36.7974 31.6556 37.6067 31.746 41.8713C31.746 43.9068 30.09 45.5627 28.0546 45.5627ZM35.4108 39.7354C34.9411 40.205 34.3646 40.5334 33.736 40.6971C33.5769 39.9266 33.2646 39.2113 32.8324 38.5849L33.5464 37.871C33.9584 37.4591 33.9584 36.7914 33.5465 36.3794C33.1347 35.9677 32.467 35.9676 32.055 36.3793L31.3409 37.0934C30.7144 36.6612 29.9992 36.3488 29.2286 36.1897C29.901 33.4694 33.45 32.502 35.4108 34.5149C36.8501 35.9542 36.8501 38.2961 35.4108 39.7354Z" fill="#020288"/>
</svg>
