<svg width="54" height="54" viewBox="0 0 54 54" fill="none" xmlns="http://www.w3.org/2000/svg">
<g clip-path="url(#clip0_42_43)">
<path fill-rule="evenodd" clip-rule="evenodd" d="M27 42.8203C35.7135 42.8203 42.8203 35.7135 42.8203 27C42.0111 6.04367 11.9857 6.04936 11.1797 27.0002C11.1797 35.7135 18.2865 42.8203 27 42.8203Z" fill="#A4FBC4"/>
<path d="M52.0641 22.2682L49.6305 21.8627C49.0504 19.2902 48.0451 16.8638 46.6346 14.6309L48.0689 12.6229C48.7406 11.6826 48.6943 10.5105 47.9564 9.77263L44.2276 6.04389C43.4897 5.30582 42.3175 5.25973 41.3773 5.93135L39.3694 7.36562C37.1372 5.95529 34.7105 4.94997 32.1376 4.36968L31.732 1.93609C31.5417 0.796078 30.6802 0 29.6367 0H24.3633C23.3198 0 22.4583 0.796078 22.2682 1.93588L21.8626 4.36946C19.2896 4.94975 16.8629 5.95508 14.6308 7.36541L12.6229 5.93125C11.6825 5.25941 10.5104 5.30582 9.77263 6.04368L6.04368 9.77252C5.30582 10.5104 5.25952 11.6825 5.93125 12.6228L7.36552 14.6308C5.95498 16.8637 4.94975 19.2901 4.36957 21.8626L1.93609 22.2681C0.796078 22.4583 0 23.3198 0 24.3633V29.6366C0 30.6802 0.796078 31.5417 1.93588 31.7318L4.36946 32.1373C4.94965 34.7098 5.95487 37.1362 7.36541 39.3692L5.93114 41.3772C5.25952 42.3176 5.30582 43.4897 6.04357 44.2275L9.77242 47.9563C10.5103 48.694 11.6824 48.7405 12.6227 48.0688L14.6306 46.6346C16.8628 48.0449 19.2895 49.0502 21.8625 49.6305L22.2681 52.0642C22.4583 53.2039 23.3198 54 24.3633 54H29.6367C30.6802 54 31.5417 53.2039 31.7318 52.0641L32.1374 49.6305C34.7104 49.0502 37.1371 48.0449 39.3693 46.6346L41.3772 48.0689C42.3176 48.7406 43.4897 48.6942 44.2275 47.9564L47.9563 44.2276C48.6942 43.4898 48.7405 42.3178 48.0688 41.3773L46.6345 39.3693C48.045 37.1363 49.0502 34.7099 49.6304 32.1374L52.0639 31.7319C53.2039 31.5417 54 30.6802 54 29.6367V24.3633C54 23.3198 53.2039 22.4582 52.0641 22.2682ZM51.8906 29.591C51.8605 29.6097 51.8034 29.6366 51.7173 29.651L48.5726 30.1751C48.1376 30.2476 47.7938 30.583 47.7104 31.0158C47.1706 33.8167 46.085 36.4371 44.4838 38.8046C44.2369 39.1697 44.243 39.6498 44.4992 40.0085L46.3524 42.603C46.4031 42.6741 46.4245 42.7335 46.4325 42.768L42.7682 46.4323C42.7337 46.4243 42.6742 46.4029 42.6033 46.3521L40.0086 44.4988C39.6499 44.2426 39.1696 44.2363 38.8046 44.4836C36.4382 46.0846 33.8178 47.1701 31.016 47.7101C30.5831 47.7935 30.2477 48.1374 30.1752 48.5723L29.6511 51.717C29.6367 51.8032 29.6098 51.8602 29.591 51.8904H24.4088C24.3901 51.8604 24.3632 51.8032 24.3488 51.7171L23.8247 48.5723C23.7522 48.1373 23.4168 47.7935 22.9839 47.7101C20.1822 47.1702 17.5617 46.0846 15.1953 44.4836C14.8302 44.2364 14.35 44.2426 13.9913 44.4988L11.3967 46.352C11.3257 46.4028 11.2663 46.4242 11.2318 46.4322L7.56749 42.7679C7.5755 42.7333 7.59691 42.6739 7.64764 42.6029L9.50094 40.0083C9.75712 39.6496 9.76324 39.1695 9.51634 38.8044C7.91511 36.4369 6.82952 33.8164 6.28973 31.0156C6.20631 30.5828 5.86237 30.2474 5.42753 30.1749L2.28266 29.6507C2.1966 29.6364 2.13954 29.6095 2.10938 29.5908V24.4086C2.13954 24.39 2.1966 24.3631 2.28266 24.3487L5.42742 23.8245C5.86237 23.7521 6.2062 23.4167 6.28963 22.9839C6.82942 20.1829 7.91501 17.5624 9.51623 15.1951C9.76314 14.8301 9.75702 14.3499 9.50084 13.9912L7.64754 11.3965C7.59681 11.3256 7.5754 11.2661 7.56738 11.2316L11.2318 7.56728C11.2664 7.5754 11.3258 7.5967 11.3967 7.64754L13.9914 9.50073C14.3501 9.75681 14.8303 9.76303 15.1954 9.51602C17.5618 7.91501 20.1823 6.82942 22.9841 6.28952C23.4169 6.2061 23.7523 5.86216 23.8248 5.42732L24.3489 2.28255C24.3633 2.19649 24.3903 2.13933 24.4089 2.10916H29.5912C29.6098 2.13933 29.6368 2.19639 29.6512 2.28255L30.1753 5.42732C30.2478 5.86227 30.5832 6.2061 31.016 6.28952C33.8178 6.82952 36.4383 7.91511 38.8047 9.51602C39.1698 9.76303 39.65 9.75681 40.0087 9.50073L42.6034 7.64743C42.6743 7.5967 42.7337 7.57529 42.7683 7.56728L46.4327 11.2316C46.4246 11.2661 46.4033 11.3256 46.3526 11.3965L44.4993 13.9912C44.2431 14.3499 44.237 14.8301 44.4839 15.1951C46.0851 17.5624 47.1707 20.1829 47.7105 22.9839C47.7939 23.4167 48.1378 23.7521 48.5727 23.8245L51.7176 24.3487C51.8036 24.3631 51.8607 24.39 51.8908 24.4086V29.591H51.8906Z" fill="#020288"/>
<path d="M26.9173 16.4764C25.5482 15.0488 23.0658 15.0483 21.6968 16.4764L16.4763 21.6968C15.7813 22.392 15.3984 23.319 15.3984 24.307C15.3531 26.3094 17.1299 28.0427 19.0868 27.9967C20.0319 27.9967 20.9773 27.6368 21.6969 26.9173L26.9174 21.6968C28.3565 20.2575 28.3565 17.9157 26.9173 16.4764ZM20.2053 25.4257C19.2356 26.4182 17.4862 25.698 17.5078 24.307C17.5078 23.8824 17.6712 23.4852 17.968 23.1884L19.8323 21.3239L22.0696 23.5612L20.2053 25.4257ZM25.4258 20.2052L23.5613 22.0697L21.324 19.8324L23.1885 17.9679C23.4851 17.6712 23.8824 17.5077 24.3071 17.5077C25.6981 17.486 26.4183 19.2359 25.4258 20.2052Z" fill="#020288"/>
<path d="M32.8008 22.2538C30.0416 22.2023 27.4955 24.3656 27.0813 27.0815C24.3445 27.5459 22.2539 29.9337 22.2539 32.8007C22.4462 39.9062 32.4271 40.6895 33.7738 33.774C36.4899 33.3596 38.6529 30.814 38.6016 28.0547C38.666 24.9367 35.9188 22.1893 32.8008 22.2538ZM28.0547 36.4921C26.3855 36.4921 24.9716 35.3785 24.5167 33.8554H28.0547C28.6372 33.8554 29.1094 33.3832 29.1094 32.8007C29.1094 32.2182 28.6372 31.746 28.0547 31.746H24.5167C25.7909 27.7269 31.6557 28.5363 31.7461 32.8008C31.7461 34.8361 30.0901 36.4921 28.0547 36.4921ZM35.411 30.6648C34.9413 31.1346 34.3647 31.4629 33.7362 31.6266C33.5771 30.856 33.2648 30.1409 32.8326 29.5144L33.5467 28.8004C33.9585 28.3885 33.9585 27.7207 33.5467 27.3088C33.1348 26.897 32.467 26.897 32.0551 27.3088L31.3411 28.0228C30.7146 27.5906 29.9994 27.2783 29.2289 27.1193C29.927 24.3837 33.4244 23.4291 35.4111 25.4444C36.8429 26.8183 36.8431 29.2909 35.411 30.6648Z" fill="#020288"/>
</g>
<defs>
<clipPath id="clip0_42_43">
<rect width="54" height="54" fill="white"/>
</clipPath>
</defs>
</svg>
