<svg width="54" height="54" viewBox="0 0 54 54" fill="none" xmlns="http://www.w3.org/2000/svg">
<g clip-path="url(#clip0_42_80)">
<path fill-rule="evenodd" clip-rule="evenodd" d="M27.0052 25.8073C33.9821 25.8073 39.6724 20.1169 39.6724 13.1401C39.0245 -3.63955 14.9834 -3.63489 14.338 13.1403C14.3379 20.1169 20.0283 25.8073 27.0052 25.8073Z" fill="#FFBEBC"/>
<path d="M52.5082 16.9303C51.355 16.2966 49.5985 16.4251 48.4667 18.2045C48.4559 18.2173 44.2215 25.155 44.2106 25.1697C43.0789 24.4804 41.4711 24.7279 40.6387 25.7693C40.0659 26.4577 36.5465 30.8812 35.9479 31.6026C33.2324 34.7734 29.0326 36.06 27.0052 40.1804C24.978 36.0603 20.7778 34.7733 18.0625 31.6026C17.4635 30.8808 13.9449 26.4581 13.3715 25.7693C12.5396 24.728 10.9312 24.4805 9.79974 25.1697C9.78961 25.1537 5.55332 18.219 5.5437 18.2045C3.29763 14.682 -1.23424 17.5049 0.316907 20.8289C1.81632 24.1701 4.32352 30.4416 6.03585 34.1503C7.64151 37.6825 8.36168 38.6751 11.173 41.2305L14.9765 44.6875V45.0402H14.338C13.7666 45.0402 13.3034 45.5035 13.3034 46.0748V52.4085C13.3034 52.9798 13.7666 53.443 14.338 53.443H39.6725C40.2439 53.443 40.707 52.9798 40.707 52.4085V46.0748C40.707 45.5035 40.2439 45.0402 39.6725 45.0402H39.034V44.6875L42.8374 41.2305C45.6488 38.6751 46.369 37.6825 47.9747 34.1503C49.2084 31.4366 50.6643 27.9629 51.8342 25.1718C52.6703 23.1773 53.3922 21.4546 53.6891 20.8385C54.3859 19.3668 53.8776 17.6823 52.5082 16.9303ZM16.7068 43.4644L12.5647 39.6993C9.96931 37.3404 9.40485 36.5621 7.91929 33.2941C6.22197 29.6181 3.66884 23.2385 2.18815 19.9462C1.88615 19.2977 2.24091 18.8852 2.49862 18.7436C2.93087 18.506 3.41443 18.717 3.79319 19.3082L8.50549 27.0203C8.41775 27.5832 8.48748 28.2838 8.83055 29.1506C9.81537 31.6394 11.0361 34.1252 12.1797 35.9706C12.4806 36.4562 13.1183 36.606 13.6041 36.3049C14.0897 36.004 14.2395 35.3663 13.9385 34.8805C12.8567 33.1349 11.6962 30.7689 10.7546 28.3892C10.3467 27.3584 10.6223 27.1268 10.7261 27.0396C11.0232 26.7768 11.5283 26.7806 11.78 27.0916C12.3774 27.8115 15.896 32.2337 16.471 32.9249C19.7803 36.9339 25.425 38.0021 25.9706 44.0608V45.0403H17.0456V44.2299C17.0455 43.9385 16.9226 43.6605 16.7068 43.4644ZM15.3725 47.1095H25.9705V51.374H15.3725V47.1095ZM38.6378 51.374H28.0397V47.1095H38.6377V51.374H38.6378ZM51.822 19.9463C50.3307 23.2593 47.7964 29.601 46.0909 33.2942C44.6053 36.5622 44.0409 37.3405 41.4456 39.6994L37.3035 43.4645C37.0878 43.6606 36.9648 43.9386 36.9648 44.23V45.0404H28.0398V44.0609C28.585 38.0026 34.2303 36.9337 37.5394 32.925C38.114 32.2341 41.6333 27.8112 42.2302 27.0917C42.4818 26.7813 42.9866 26.7763 43.2841 27.0397C43.3878 27.1269 43.6635 27.3585 43.2556 28.3893C42.3139 30.769 41.1535 33.135 40.0717 34.8806C39.7707 35.3663 39.9204 36.004 40.4061 36.305C40.8917 36.606 41.5295 36.4564 41.8305 35.9707C42.9741 34.1253 44.1948 31.6395 45.1796 29.1507C45.5227 28.2839 45.5923 27.5835 45.5047 27.0204L50.217 19.3083C50.5957 18.7171 51.0792 18.506 51.5115 18.7437C51.7693 18.8853 52.124 19.2977 51.822 19.9463Z" fill="#020288"/>
<path d="M20.6715 16.8137H23.3315V19.4737C23.3315 20.045 23.7947 20.5083 24.3661 20.5083H29.6441C30.2155 20.5083 30.6786 20.045 30.6786 19.4737V16.8137H33.3386C33.91 16.8137 34.3732 16.3504 34.3732 15.7791V10.5012C34.3732 9.92994 33.91 9.46666 33.3386 9.46666H30.6786V6.80655C30.6786 6.23526 30.2155 5.77197 29.6441 5.77197H24.3661C23.7947 5.77197 23.3315 6.23526 23.3315 6.80655V9.46666H20.6715C20.1001 9.46666 19.6369 9.92994 19.6369 10.5012V15.7792C19.6369 16.3505 20.1001 16.8137 20.6715 16.8137ZM21.7061 11.5358H24.3661C24.9375 11.5358 25.4006 11.0725 25.4006 10.5012V7.84113H28.6095V10.5012C28.6095 11.0725 29.0727 11.5358 29.6441 11.5358H32.3041V14.7447H29.6441C29.0727 14.7447 28.6095 15.2079 28.6095 15.7792V18.4392H25.4006V15.7792C25.4006 15.2079 24.9375 14.7447 24.3661 14.7447H21.7061V11.5358Z" fill="#020288"/>
</g>
<defs>
<clipPath id="clip0_42_80">
<rect width="54" height="54" fill="white"/>
</clipPath>
</defs>
</svg>
