<svg width="54" height="54" viewBox="0 0 54 54" fill="none" xmlns="http://www.w3.org/2000/svg">
<g clip-path="url(#clip0_42_167)">
<path fill-rule="evenodd" clip-rule="evenodd" d="M26.9995 46.1438C36.5159 41.6713 51.8449 26.6495 48.1786 15.1949C45.7397 7.40084 35.5892 5.08438 29.9842 11.0327C29.9842 11.0324 26.9995 14.0171 26.9995 14.0171L24.0149 11.0324C18.4104 5.08702 8.25955 7.3981 5.82079 15.1948C2.15616 26.6432 17.467 41.6605 26.9995 46.1438Z" fill="#FFBEBC"/>
<path d="M53.7962 16.0857C51.8855 3.45215 36.4445 -2.10474 26.9996 6.59517C17.555 -2.10432 2.11216 3.45257 0.203129 16.0859C-1.3812 26.8144 6.56178 37.0871 15.039 44.4455C19.3427 48.1292 23.7119 50.8107 26.7265 51.6185C29.7976 51.3837 34.7001 47.9971 38.9602 44.4457C47.4377 37.095 55.3837 26.8064 53.7962 16.0857ZM48.5534 30.0701C44.7918 36.9643 34.2652 47.1518 26.9996 49.5019C24.3112 48.6877 20.2927 46.1644 16.4115 42.8422C4.562 33.0798 -3.96612 16.7831 7.60636 7.40359C9.92271 5.62594 13.0009 4.4562 16.2579 4.4562C19.6125 4.4562 23.1569 5.69748 26.2535 8.79408C26.4513 8.99193 26.7198 9.10315 26.9996 9.10315C27.2795 9.10315 27.5479 8.99193 27.7458 8.79408C33.8489 2.69079 41.6901 3.7951 46.393 7.40369C51.2672 11.1437 54.7577 19.3241 48.5534 30.0701Z" fill="#020288"/>
<path d="M25.8617 18.0644C25.8617 18.0643 25.8617 18.0643 25.8617 18.0644C24.4216 16.6244 22.0784 16.6244 20.6384 18.0643L15.4152 23.2875C13.9752 24.7275 13.9752 27.0707 15.4152 28.5107C16.7849 29.939 19.2687 29.9394 20.6384 28.5107L25.8617 23.2875C27.3016 21.8475 27.3016 19.5045 25.8617 18.0644ZM19.1461 27.0184C18.1641 28.0049 16.4357 27.301 16.4472 25.8991C16.4472 25.4743 16.6107 25.0767 16.9076 24.7799L18.773 22.9145L21.0115 25.1528L19.1461 27.0184ZM24.3693 21.7952L22.5039 23.6606L20.2654 21.4222L22.1309 19.5568C22.4394 19.2481 22.8447 19.0939 23.25 19.0939C24.6351 19.0777 25.367 20.8118 24.3693 21.7952Z" fill="#020288"/>
<path d="M32.8034 22.7897C30.0429 22.7382 27.4954 24.9027 27.0811 27.62C24.3429 28.0846 22.2511 30.4736 22.2511 33.3421C22.4434 40.4513 32.4296 41.235 33.777 34.3158C36.4946 33.9012 38.6586 31.3543 38.6073 28.5934C38.6718 25.474 35.923 22.7251 32.8034 22.7897ZM28.055 37.0354C26.385 37.0354 24.9703 35.9213 24.5152 34.3973H28.055C28.6378 34.3973 29.1102 33.9248 29.1102 33.3421C29.1102 32.7594 28.6378 32.2868 28.055 32.2868H24.5152C25.79 28.2656 31.6579 29.0754 31.7483 33.3422C31.7483 35.3786 30.0914 37.0354 28.055 37.0354ZM35.4151 31.2051C34.9452 31.6751 34.3683 32.0036 33.7393 32.1674C33.5802 31.3964 33.2678 30.6809 32.8353 30.0542L33.5497 29.3398C33.9618 28.9277 33.9618 28.2595 33.5497 27.8473C33.1376 27.4354 32.4695 27.4354 32.0573 27.8473L31.3429 28.5617C30.7162 28.1293 30.0006 27.8168 29.2297 27.6578C29.9281 24.9208 33.4274 23.9655 35.4152 25.9821C36.8478 27.3565 36.8479 29.8306 35.4151 31.2051Z" fill="#020288"/>
</g>
<defs>
<clipPath id="clip0_42_167">
<rect width="54" height="54" fill="white"/>
</clipPath>
</defs>
</svg>
