<svg width="54" height="54" viewBox="0 0 54 54" fill="none" xmlns="http://www.w3.org/2000/svg">
<g clip-path="url(#clip0_42_89)">
<path fill-rule="evenodd" clip-rule="evenodd" d="M41.762 36.0369H26.9689V52.9433H41.762C52.9577 52.502 52.9545 36.4765 41.762 36.0369Z" fill="#FFF69B"/>
<path fill-rule="evenodd" clip-rule="evenodd" d="M5.32436 15.7482C8.95756 10.1502 17.5091 10.1526 21.1402 15.7481C25.3763 9.57981 20.728 0.856701 13.2322 0.95592C5.73741 0.856489 1.0876 9.58107 5.32436 15.7482Z" fill="#FFF69B"/>
<path d="M41.7619 34.98H12.1756C-0.415288 35.4543 -0.427229 53.5209 12.1757 53.9999C12.1756 53.9999 41.7619 53.9999 41.7619 53.9999C54.3528 53.5255 54.3647 35.459 41.7619 34.98ZM41.7619 51.8866H12.1756C2.38453 51.5184 2.37174 37.4665 12.1757 37.0933C12.1756 37.0933 41.7619 37.0933 41.7619 37.0933C45.8404 37.0933 49.1585 40.4114 49.1585 44.4899C49.1585 48.5683 45.8404 51.8866 41.7619 51.8866Z" fill="#020288"/>
<path d="M39.6486 31.5987C46.0577 31.5987 51.2719 24.4885 51.2719 15.7489C50.6812 -5.2514 28.6145 -5.24791 28.0254 15.7491C28.0254 24.4885 33.2396 31.5987 39.6486 31.5987ZM46.2546 25.5866C42.6886 30.7526 36.6087 30.7527 33.0428 25.5865C31.3485 23.2146 30.3428 20.1286 30.1667 16.8055H49.1307C48.9545 20.1287 47.9489 23.2145 46.2546 25.5866ZM33.0428 5.91099C36.6089 0.744902 42.6888 0.745008 46.2546 5.9111C47.9489 8.28307 48.9545 11.369 49.1307 14.6922H30.1667C30.3428 11.369 31.3485 8.28307 33.0428 5.91099Z" fill="#020288"/>
<path d="M13.2322 31.5987C26.5985 31.1904 27.468 12.2168 14.2889 10.5181V5.71071C14.2889 5.12712 13.8157 4.65405 13.2322 4.65405C12.6488 4.65405 12.1756 5.12712 12.1756 5.71071V10.5181C-1.01284 12.2219 -0.123768 31.1948 13.2322 31.5987ZM13.2322 12.5789C17.8933 12.5789 21.6856 16.371 21.6856 21.0321C21.2606 32.231 5.2023 32.2281 4.779 21.032C4.779 16.371 8.57112 12.5789 13.2322 12.5789Z" fill="#020288"/>
<path d="M8.47731 22.0889H17.9872C19.3847 22.0383 19.3894 20.0281 17.9872 19.9756H8.47731C7.89382 19.9756 7.42065 20.4487 7.42065 21.0322C7.42065 21.6158 7.89382 22.0889 8.47731 22.0889Z" fill="#020288"/>
</g>
<defs>
<clipPath id="clip0_42_89">
<rect width="54" height="54" fill="white"/>
</clipPath>
</defs>
</svg>
