<svg width="54" height="54" viewBox="0 0 54 54" fill="none" xmlns="http://www.w3.org/2000/svg">
<g clip-path="url(#clip0_42_102)">
<path fill-rule="evenodd" clip-rule="evenodd" d="M24.0513 10.764L27.7799 14.4926L30.3901 11.8825C31.4154 10.8571 31.4154 9.17926 30.3901 8.15383C29.3646 7.12841 27.6867 7.12841 26.6614 8.15383L24.0513 10.764Z" fill="#E2C4FF"/>
<path fill-rule="evenodd" clip-rule="evenodd" d="M33.6632 15.6303C32.7546 16.5389 32.2733 17.7524 32.2732 18.9862C34.8943 18.9862 37.0191 21.1109 37.0191 23.7321C41.194 23.7627 43.3603 18.5752 40.3748 15.6303C38.5215 13.7769 35.5166 13.7769 33.6632 15.6303Z" fill="#E2C4FF"/>
<path fill-rule="evenodd" clip-rule="evenodd" d="M13.7114 47.6724H48.7256V52.9454H13.7114V47.6724Z" fill="#E2C4FF"/>
<path d="M48.2175 1.53005C47.2244 0.543863 45.9143 0.00230601 44.5317 0.00230601C44.5363 -0.00497099 9.5022 0.00779013 9.49302 0.00241147C6.58528 0.00241147 4.21973 2.36796 4.21973 5.2756V7.38477C4.21973 7.96714 4.69199 8.43941 5.27436 8.43941H12.6568V52.9454C12.6568 53.5277 13.1291 54 13.7115 54H48.7257C49.308 54 49.7803 53.5277 49.7803 52.9454V5.2756C49.7803 3.86102 49.2253 2.53091 48.2175 1.53005ZM12.6568 6.33013H6.329V5.2756C6.329 3.53102 7.74833 2.11169 9.49292 2.11169C11.2375 2.11169 12.6568 3.53102 12.6568 5.2756V6.33013ZM47.671 51.8907H14.7661V5.2756C14.7661 4.08956 14.3724 2.99358 13.709 2.11169C13.712 2.10789 44.5182 2.11454 44.5241 2.11158C45.3534 2.11158 46.1364 2.43609 46.7313 3.0268C47.3373 3.62857 47.6711 4.42725 47.6711 5.2756C47.671 5.2756 47.671 51.8907 47.671 51.8907Z" fill="#020288"/>
<path d="M23.3056 18.928C24.2509 18.928 25.1961 18.5683 25.9157 17.8487L31.136 12.6285C34.4615 9.04205 29.5057 4.08082 25.9157 7.40821L20.6955 12.6285C19.2563 14.0676 19.2563 16.4095 20.6955 17.8487C21.415 18.5683 22.3603 18.928 23.3056 18.928ZM22.1869 14.1199L27.4072 8.89968C27.7038 8.60301 28.1011 8.43954 28.5256 8.43954C29.9261 8.42836 30.6308 10.1551 29.6443 11.1369L24.424 16.3571C23.8405 16.9664 22.7705 16.9667 22.1868 16.3571C21.5777 15.7733 21.5773 14.7038 22.1869 14.1199Z" fill="#020288"/>
<path d="M26.4727 23.7318C26.4727 26.9302 29.0748 29.5323 32.2732 29.5323C36.9001 29.5768 39.7019 24.1947 37.0508 20.4456L37.7649 19.7315C38.1767 19.3197 38.1767 18.652 37.7648 18.2401C37.3531 17.8281 36.6852 17.8282 36.2733 18.2402L35.5594 18.9542C31.8093 16.3027 26.4282 19.1056 26.4727 23.7318ZM32.2732 27.423C30.6042 27.423 29.1903 26.3095 28.7354 24.7864H32.2732C32.8556 24.7864 33.3278 24.3142 33.3278 23.7318C33.3278 23.1494 32.8556 22.6771 32.2732 22.6771H28.7354C30.0095 18.6582 35.874 19.4676 35.9644 23.7319C35.9644 25.7671 34.3085 27.423 32.2732 27.423Z" fill="#020288"/>
<path d="M31.2186 41.3442H20.6722C19.2777 41.3946 19.2725 43.401 20.6722 43.4535H31.2186C32.6132 43.4031 32.6183 41.3968 31.2186 41.3442Z" fill="#020288"/>
<path d="M41.765 36.5986H20.6722C20.0898 36.5986 19.6176 37.0709 19.6176 37.6533C19.6176 38.2356 20.0898 38.7079 20.6722 38.7079H41.765C43.1562 38.6591 43.1677 36.6522 41.765 36.5986Z" fill="#020288"/>
<path d="M41.765 31.8525H20.6722C20.0898 31.8525 19.6176 32.3248 19.6176 32.9072C19.6176 33.4895 20.0898 33.9618 20.6722 33.9618H41.765C43.1562 33.913 43.1677 31.9061 41.765 31.8525Z" fill="#020288"/>
</g>
<defs>
<clipPath id="clip0_42_102">
<rect width="54" height="54" fill="white"/>
</clipPath>
</defs>
</svg>
