<svg width="54" height="54" viewBox="0 0 54 54" fill="none" xmlns="http://www.w3.org/2000/svg">
<path fill-rule="evenodd" clip-rule="evenodd" d="M44.8605 17.066C39.816 15.3829 35.8307 11.3822 34.1688 6.32812H19.8312C18.1693 11.3822 14.1838 15.383 9.13947 17.066C9.4063 30.3369 13.0382 43.5607 27 47.4567C40.9659 43.559 44.593 30.3324 44.8605 17.066Z" fill="#FFF69B"/>
<path d="M50.203 11.6016C44.3874 11.6016 39.6562 6.87023 39.6562 1.05469C39.6562 0.472184 39.184 0 38.6015 0H15.3985C14.816 0 14.3438 0.472184 14.3438 1.05469C14.3438 6.87023 9.6126 11.6016 3.79706 11.6016C3.21455 11.6016 2.74237 12.0737 2.74237 12.6562C2.74237 20.1963 3.20939 29.8755 6.85112 37.8629C10.794 46.4464 17.645 51.6583 27 54C36.3546 51.6588 43.2065 46.4462 47.1489 37.8629C50.7906 29.8754 51.2577 20.1963 51.2577 12.6562C51.2577 12.0737 50.7855 11.6016 50.203 11.6016ZM27 51.8523C7.92479 46.5967 4.96375 30.5 4.85491 13.6671C10.9928 13.157 15.9007 8.24755 16.4095 2.10938H37.5903C38.0992 8.24755 43.0072 13.157 49.145 13.6671C49.0362 30.5 46.0752 46.5967 27 51.8523Z" fill="#020288"/>
<path d="M26.9173 16.3689C25.5482 14.9414 23.0659 14.9409 21.6968 16.3689L16.4763 21.5894C15.037 23.0287 15.037 25.3706 16.4763 26.8099C17.8454 28.2374 20.3277 28.238 21.6968 26.8099L26.9173 21.5894C28.3565 20.1501 28.3565 17.8083 26.9173 16.3689ZM20.2052 25.3184C19.2238 26.3043 17.4963 25.6007 17.5078 24.1997C17.5078 23.7751 17.6711 23.3778 17.9679 23.0811L19.8323 21.2167L22.0696 23.454L20.2052 25.3184ZM25.4257 20.0978L23.5612 21.9623L21.3239 19.7249L23.1884 17.8605C23.4851 17.5638 23.8824 17.4003 24.3069 17.4003C25.7082 17.3887 26.4117 19.1168 25.4257 20.0978Z" fill="#020288"/>
<path d="M32.8008 22.1464C30.0416 22.0949 27.4955 24.2582 27.0814 26.9741C24.3445 27.4385 22.2539 29.8263 22.2539 32.6933C22.4462 39.7988 32.4271 40.5821 33.7738 33.6665C36.4899 33.252 38.6529 30.7064 38.6016 27.9471C38.666 24.8293 35.9188 22.0818 32.8008 22.1464ZM28.0548 36.3847C26.3856 36.3847 24.9717 35.2711 24.5168 33.7479H28.0547C28.6372 33.7479 29.1094 33.2758 29.1094 32.6933C29.1094 32.1108 28.6372 31.6386 28.0547 31.6386H24.5167C25.7909 27.6195 31.6557 28.4287 31.7461 32.6934C31.7462 34.7287 30.0901 36.3847 28.0548 36.3847ZM35.411 30.5574C34.9413 31.0272 34.3648 31.3555 33.7362 31.5192C33.5771 30.7486 33.2648 30.0334 32.8326 29.4071L33.5467 28.693C33.9585 28.2812 33.9585 27.6134 33.5467 27.2014C33.1348 26.7894 32.467 26.7895 32.055 27.2014L31.341 27.9154C30.7146 27.4832 29.9993 27.1709 29.2288 27.0119C29.9269 24.2763 33.4243 23.3217 35.411 25.337C36.843 26.711 36.8431 29.1835 35.411 30.5574Z" fill="#020288"/>
</svg>
