<svg width="54" height="54" viewBox="0 0 54 54" fill="none" xmlns="http://www.w3.org/2000/svg">
<g clip-path="url(#clip0_42_34)">
<path fill-rule="evenodd" clip-rule="evenodd" d="M15.3984 11.6016H38.6014V44.5077H15.3984V11.6016Z" fill="#A4FBC4"/>
<path d="M40.7109 0H13.2891C11.5445 0 10.1251 1.41939 10.1251 3.16405V50.8359C10.1251 52.5806 11.5445 54 13.2891 54H40.7109C42.4555 54 43.8749 52.5806 43.8749 50.8359V3.16405C43.8749 1.41939 42.4555 0 40.7109 0V0ZM12.2344 6.3281H19.7979C20.2331 7.55586 21.4062 8.43747 22.7813 8.43747H31.2187C32.5937 8.43747 33.7666 7.55586 34.2019 6.3281H41.7656V47.6719H12.2344V6.3281ZM13.2891 2.10937H40.7109C41.2924 2.10937 41.7656 2.5825 41.7656 3.16405V4.21873H33.328C32.7456 4.21873 32.2733 4.69092 32.2733 5.27342C32.2733 5.85497 31.8003 6.3281 31.2187 6.3281H22.7813C22.1997 6.3281 21.7266 5.85497 21.7266 5.27342C21.7266 4.69092 21.2544 4.21873 20.6719 4.21873H12.2344V3.16405C12.2344 2.5825 12.7076 2.10937 13.2891 2.10937ZM40.7109 51.8906H13.2891C12.7076 51.8906 12.2344 51.4175 12.2344 50.8359V49.7813H41.7656V50.8359C41.7656 51.4175 41.2924 51.8906 40.7109 51.8906Z" fill="#020288"/>
<path d="M33.328 24.3633H30.6913V21.7266C30.6913 21.1441 30.219 20.6719 29.6366 20.6719H24.3632C23.7807 20.6719 23.3085 21.1441 23.3085 21.7266V24.3633H20.6718C20.0893 24.3633 19.6171 24.8355 19.6171 25.418V30.6914C19.6171 31.2739 20.0893 31.7461 20.6718 31.7461H23.3085V34.3828C23.3085 34.9653 23.7807 35.4375 24.3632 35.4375H29.6366C30.219 35.4375 30.6913 34.9653 30.6913 34.3828V31.7461H33.328C33.9104 31.7461 34.3827 31.2739 34.3827 30.6914V25.418C34.3827 24.8356 33.9105 24.3633 33.328 24.3633ZM32.2733 29.6367H29.6366C29.0542 29.6367 28.5819 30.1089 28.5819 30.6914V33.3281H25.4179V30.6914C25.4179 30.1089 24.9457 29.6367 24.3632 29.6367H21.7265V26.4727H24.3632C24.9457 26.4727 25.4179 26.0005 25.4179 25.418V22.7812H28.5819V25.418C28.5819 26.0005 29.0542 26.4727 29.6366 26.4727H32.2733V29.6367Z" fill="#020288"/>
</g>
<defs>
<clipPath id="clip0_42_34">
<rect width="54" height="54" fill="white"/>
</clipPath>
</defs>
</svg>
